<?xml version="1.0" encoding="utf-8"?>
<!-- Generator: Adobe Illustrator 24.3.0, SVG Export Plug-In . SVG Version: 6.00 Build 0)  -->
<svg version="1.0" xmlns="http://www.w3.org/2000/svg" xmlns:xlink="http://www.w3.org/1999/xlink" x="0px" y="0px"
	 viewBox="0 0 426.9 94.7" style="enable-background:new 0 0 426.9 94.7;" xml:space="preserve">
<style type="text/css">
	.st0{fill:#665766;}
	.st1{fill:#4A3F4A;}
	.st2{fill:#E5E1DC;}
	.st3{fill:#F2A31E;}
	.st4{fill:#E24F25;}
	.st5{fill:#F4F2EF;}
	.st6{fill:#F37221;}
	.st7{fill:#FEC136;}
	.st8{fill:#7ACBBF;}
	.st9{fill:#4FC0AD;}
	.st10{fill:#FFFFFF;stroke:#000000;stroke-width:2;stroke-miterlimit:10;}
</style>
<g id="Layer_1">
	<g>
		<g>
			<g>
				<g id="XMLID_1494_">
					<g id="XMLID_1495_">
						<g id="XMLID_1496_">
							<g id="XMLID_1497_">
								<g id="XMLID_1498_">
									<g id="XMLID_1499_">
										<g id="XMLID_1500_">
											<g id="XMLID_1501_">
												<g id="XMLID_1502_">
													<g id="XMLID_1503_">
														<g id="XMLID_1504_">
															<g id="XMLID_1505_">
																<g id="XMLID_1506_">
																	<g id="XMLID_1507_">
																		<g id="XMLID_1508_">
																			<circle class="st0" cx="47.4" cy="47.4" r="47.4"/>
																		</g>
																	</g>
																</g>
															</g>
														</g>
													</g>
												</g>
											</g>
										</g>
									</g>
								</g>
							</g>
						</g>
					</g>
				</g>
			</g>
		</g>
		<path class="st1" d="M92.7,33.8L73.1,14.1c0,0-14.8,12.6-11.9,16.7l-6.3,4.4L35.9,16.4c-3-3.6-5.4-0.9-9.4,1.8
			c-4.3,2.8-8.3,4.9-5.5,9.2l17.6,17.8c-0.5,1.3,0.5,3.6,0.8,4.9l-8.6,5.2l-4.1-4C23.6,48,11.2,67.5,11.2,67.5l26.2,26.2
			c3.2,0.7,6.6,1.1,10,1.1c26.2,0,47.4-21.2,47.4-47.4C94.7,42.7,94,38.1,92.7,33.8L92.7,33.8z"/>
		<g>
			<g>
				<g>
					<path class="st2" d="M44.2,44.2L60,25.3l4.3,3.6L48.4,47.7L44.2,44.2z"/>
				</g>
				<g>
					<g>
						<g id="XMLID_1509_">
							<g id="XMLID_1510_">
								<g id="XMLID_1511_">
									<g id="XMLID_1512_">
										<g id="XMLID_1513_">
											<g id="XMLID_1514_">
												<g id="XMLID_1515_">
													<g id="XMLID_1516_">
														<g id="XMLID_1517_">
															<g id="XMLID_1518_">
																<g id="XMLID_1519_">
																	<g id="XMLID_1615_">
																		<g id="XMLID_1616_">
																			<g id="XMLID_1617_">
																				<ellipse id="XMLID_1618_" class="st3" cx="65.9" cy="22.7" rx="11.2" ry="11.2"/>
																			</g>
																		</g>
																	</g>
																</g>
															</g>
														</g>
													</g>
												</g>
											</g>
										</g>
									</g>
								</g>
							</g>
						</g>
					</g>
				</g>
			</g>
			<g>
				<g>
					<path class="st2" d="M44.9,50.1l3.6-4.3l18.8,15.8l-3.6,4.3L44.9,50.1z"/>
				</g>
				<g>
					<g id="XMLID_307_">
						<g id="XMLID_308_">
							<g id="XMLID_309_">
								<g id="XMLID_310_">
									<g id="XMLID_311_">
										<g id="XMLID_312_">
											<g id="XMLID_313_">
												<g id="XMLID_315_">
													<g id="XMLID_316_">
														<g id="XMLID_317_">
															<g id="XMLID_322_">
																<g id="XMLID_323_">
																	<g id="XMLID_324_">
																		<g id="XMLID_325_">
																			<ellipse id="XMLID_326_" class="st4" cx="68.3" cy="66.1" rx="12.4" ry="12.4"/>
																		</g>
																	</g>
																</g>
															</g>
														</g>
													</g>
												</g>
											</g>
										</g>
									</g>
								</g>
							</g>
						</g>
					</g>
				</g>
			</g>
			<g>
				<g>
					<path class="st5" d="M29.6,28.6l4.6-3.1l13.5,20.5l-4.6,3.1L29.6,28.6z"/>
				</g>
				<g>
					<g>
						<g id="XMLID_1619_">
							<g id="XMLID_1620_">
								<g id="XMLID_1621_">
									<g id="XMLID_1622_">
										<g id="XMLID_1623_">
											<g id="XMLID_1624_">
												<g id="XMLID_1625_">
													<g id="XMLID_1626_">
														<g id="XMLID_1627_">
															<g id="XMLID_1628_">
																<g id="XMLID_1629_">
																	<g id="XMLID_1675_">
																		<g id="XMLID_1691_">
																			<g id="XMLID_1692_">
																				<g id="XMLID_1693_">
																					<ellipse class="st6" cx="28.7" cy="22.3" rx="9.3" ry="9.3"/>
																				</g>
																			</g>
																		</g>
																	</g>
																</g>
															</g>
														</g>
													</g>
												</g>
											</g>
										</g>
									</g>
								</g>
							</g>
						</g>
					</g>
				</g>
			</g>
			<g>
				<g>
					<path class="st5" d="M20.5,55.1l22.7-9.3l2.1,5.1l-22.7,9.3L20.5,55.1z"/>
				</g>
				<g>
					<g>
						<g id="XMLID_1694_">
							<g id="XMLID_1695_">
								<g id="XMLID_1696_">
									<g id="XMLID_1697_">
										<g id="XMLID_1698_">
											<g id="XMLID_1699_">
												<g id="XMLID_1700_">
													<g id="XMLID_1701_">
														<g id="XMLID_1702_">
															<g id="XMLID_1703_">
																<g id="XMLID_1704_">
																	<g id="XMLID_1705_">
																		<g id="XMLID_1706_">
																			<g id="XMLID_1707_">
																				<g id="XMLID_1708_">
																					<ellipse class="st7" cx="18.4" cy="59" rx="11.2" ry="11.2"/>
																				</g>
																			</g>
																		</g>
																	</g>
																</g>
															</g>
														</g>
													</g>
												</g>
											</g>
										</g>
									</g>
								</g>
							</g>
						</g>
					</g>
				</g>
			</g>
			<g>
				<g>
					<g id="XMLID_1709_">
						<g id="XMLID_1800_">
							<g id="XMLID_1801_">
								<g id="XMLID_1802_">
									<g id="XMLID_1803_">
										<g id="XMLID_1804_">
											<g id="XMLID_1805_">
												<g id="XMLID_1806_">
													<g id="XMLID_1807_">
														<g id="XMLID_1808_">
															<g id="XMLID_1809_">
																<g id="XMLID_1810_">
																	<g id="XMLID_1811_">
																		<g id="XMLID_1812_">
																			<g id="XMLID_1813_">
																				<ellipse class="st8" cx="45.5" cy="46.9" rx="8.5" ry="8.5"/>
																			</g>
																		</g>
																	</g>
																</g>
															</g>
														</g>
													</g>
												</g>
											</g>
										</g>
									</g>
								</g>
							</g>
						</g>
					</g>
				</g>
			</g>
			<g>
				<g id="XMLID_447_">
					<g id="XMLID_448_">
						<g id="XMLID_449_">
							<g id="XMLID_450_">
								<g id="XMLID_451_">
									<g id="XMLID_452_">
										<g id="XMLID_453_">
											<g id="XMLID_454_">
												<g id="XMLID_455_">
													<g id="XMLID_456_">
														<g id="XMLID_1367_">
															<g id="XMLID_1368_">
																<g id="XMLID_1369_">
																	<g id="XMLID_1370_">
																		<path class="st9" d="M52,52.4c-1.7,2-4.1,3-6.5,3v-17c1.9,0,3.9,0.6,5.4,2C54.5,43.4,55,48.8,52,52.4z"/>
																	</g>
																</g>
															</g>
														</g>
													</g>
												</g>
											</g>
										</g>
									</g>
								</g>
							</g>
						</g>
					</g>
				</g>
			</g>
		</g>
	</g>
</g>
<g id="Layer_2">
	<g>
		<path class="st10" d="M121.7,29.2c0,5.3-2.6,7.9-7.7,7.9h-6.8c-0.6,0-1.1-0.1-1.5-0.3c-0.4-0.2-0.8-0.5-1.1-0.8s-0.5-0.7-0.6-1.1
			c-0.1-0.4-0.2-0.8-0.2-1.3c0-0.4,0.1-0.8,0.2-1.3c0.1-0.4,0.4-0.8,0.7-1.1c0.3-0.3,0.7-0.6,1.1-0.8c0.4-0.2,0.9-0.3,1.5-0.3h7.1
			c0.5,0,0.8-0.1,1-0.4s0.3-0.6,0.3-0.9c0-0.3-0.1-0.6-0.3-0.9s-0.6-0.4-1-0.4h-3.5c-2.4,0-4.2-0.6-5.5-1.8c-1.2-1.2-1.8-3-1.8-5.6
			c0-5.3,2.6-7.9,7.8-7.9h5.5c0.6,0,1.1,0.1,1.5,0.3c0.4,0.2,0.8,0.5,1.1,0.8c0.3,0.3,0.5,0.7,0.7,1.1c0.2,0.4,0.2,0.8,0.2,1.2
			s-0.1,0.8-0.2,1.3c-0.2,0.4-0.4,0.8-0.7,1.1c-0.3,0.3-0.7,0.6-1.1,0.8c-0.5,0.2-1,0.3-1.6,0.3h-5.9c-0.5,0-0.8,0.1-1,0.4
			c-0.2,0.3-0.3,0.6-0.3,0.9c0,0.3,0.1,0.6,0.3,0.9c0.2,0.3,0.6,0.4,1,0.4h3.5c2.5,0,4.3,0.6,5.5,1.8
			C121.1,24.8,121.7,26.7,121.7,29.2z"/>
		<path class="st10" d="M124.6,24.7c0-1.8,0.3-3.4,1-4.9s1.6-2.9,2.7-4c1.1-1.2,2.5-2.1,4-2.7c1.5-0.7,3.2-1,4.9-1
			c1.8,0,3.4,0.3,4.9,1c1.5,0.7,2.9,1.6,4,2.7s2,2.5,2.7,4c0.7,1.5,1,3.2,1,4.9c0,1.8-0.3,3.4-1,4.9c-0.7,1.5-1.6,2.9-2.7,4
			c-1.1,1.2-2.5,2.1-4,2.7c-1.5,0.7-3.2,1-4.9,1c-1.8,0-3.4-0.3-4.9-1c-1.5-0.7-2.9-1.6-4-2.7c-1.1-1.2-2.1-2.5-2.7-4
			C124.9,28.1,124.6,26.5,124.6,24.7z M131.6,24.8c0,0.8,0.2,1.5,0.5,2.2c0.3,0.7,0.7,1.3,1.2,1.8c0.5,0.5,1.1,0.9,1.8,1.2
			c0.7,0.3,1.4,0.4,2.2,0.4s1.5-0.1,2.2-0.4c0.7-0.3,1.3-0.7,1.8-1.2s0.9-1.1,1.2-1.8c0.3-0.7,0.5-1.4,0.5-2.2
			c0-0.8-0.2-1.5-0.5-2.2s-0.7-1.3-1.2-1.8s-1.1-0.9-1.8-1.2c-0.7-0.3-1.4-0.5-2.2-0.5s-1.5,0.2-2.2,0.5c-0.7,0.3-1.3,0.7-1.8,1.2
			c-0.5,0.5-0.9,1.1-1.2,1.8C131.7,23.3,131.6,24,131.6,24.8z"/>
		<path class="st10" d="M165,19.3c-1,0-1.8,0.2-2.5,0.5c-0.7,0.3-1.3,0.7-1.8,1.2c-0.5,0.5-0.8,1.1-1.1,1.7c-0.2,0.7-0.4,1.3-0.4,2
			c0,0.7,0.1,1.4,0.4,2.1c0.2,0.7,0.6,1.3,1.1,1.8c0.5,0.5,1.1,0.9,1.8,1.2c0.7,0.3,1.5,0.5,2.5,0.5h2.5c0.6,0,1.1,0.1,1.5,0.3
			c0.4,0.2,0.8,0.5,1.1,0.8s0.5,0.7,0.6,1.1c0.1,0.4,0.2,0.8,0.2,1.3c0,0.9-0.3,1.7-0.8,2.4c-0.6,0.7-1.4,1-2.6,1H165
			c-2,0-3.8-0.3-5.4-1c-1.5-0.7-2.8-1.6-3.9-2.8s-1.8-2.5-2.3-3.9c-0.5-1.5-0.8-3-0.8-4.5s0.3-3.1,0.8-4.6c0.5-1.5,1.3-2.9,2.4-4
			c1.1-1.2,2.4-2.1,4-2.9c1.6-0.7,3.5-1.1,5.6-1.1h2c0.6,0,1.1,0.1,1.5,0.3c0.4,0.2,0.8,0.5,1.1,0.8c0.3,0.3,0.5,0.7,0.7,1.1
			c0.2,0.4,0.2,0.8,0.2,1.3c0,0.4-0.1,0.9-0.2,1.3c-0.2,0.4-0.4,0.8-0.7,1.1c-0.3,0.3-0.7,0.6-1.1,0.8c-0.4,0.2-0.9,0.3-1.5,0.3H165
			z"/>
		<path class="st10" d="M181,33.8c0,1.1-0.3,2-1,2.6c-0.7,0.6-1.5,0.9-2.4,0.9c-0.9,0-1.7-0.3-2.4-0.9c-0.7-0.6-1-1.4-1-2.6V15.6
			c0-1.1,0.3-1.9,1-2.5s1.5-0.9,2.4-0.9c0.9,0,1.7,0.3,2.4,0.9s1,1.4,1,2.5V33.8z"/>
		<path class="st10" d="M199.1,32.3h-7.3l-1.1,2.7c-0.3,0.8-0.8,1.3-1.3,1.7c-0.5,0.4-1.1,0.5-1.7,0.5c-0.5,0-0.9-0.1-1.4-0.2
			c-0.4-0.2-0.8-0.4-1.2-0.7c-0.4-0.3-0.6-0.6-0.8-1c-0.2-0.4-0.3-0.8-0.3-1.3c0-0.6,0.1-1,0.2-1.4l8.4-18.4
			c0.3-0.6,0.6-1.1,1.1-1.5c0.4-0.4,1.1-0.6,2.1-0.6c0.9,0,1.6,0.2,2,0.6c0.5,0.4,0.8,0.9,1.1,1.5l7.6,18.4c0.2,0.4,0.2,0.9,0.2,1.4
			c0,0.5-0.1,0.9-0.3,1.3c-0.2,0.4-0.5,0.7-0.8,1c-0.3,0.3-0.7,0.5-1.2,0.7c-0.4,0.2-0.9,0.2-1.3,0.2c-0.7,0-1.3-0.2-1.8-0.5
			c-0.5-0.4-0.9-0.9-1.2-1.7L199.1,32.3z M193.9,26.9h3.3l-1.5-4.5L193.9,26.9z"/>
		<path class="st10" d="M213.2,37.1c-2.3,0-3.4-1.2-3.4-3.5V15.6c0-1.1,0.3-1.9,1-2.5c0.7-0.6,1.5-0.9,2.4-0.9
			c0.9,0,1.7,0.3,2.4,0.9s1,1.4,1,2.5v14.7h3.6c1.1,0,1.9,0.3,2.4,1c0.6,0.7,0.8,1.5,0.8,2.4c0,0.9-0.3,1.7-0.8,2.4
			c-0.6,0.7-1.4,1-2.4,1H213.2z"/>
		<path class="st10" d="M228.3,27.6c-0.9,0-1.6-0.3-2.1-0.8c-0.5-0.6-0.8-1.2-0.8-2c0-0.8,0.3-1.5,0.8-2.1c0.5-0.6,1.2-0.9,2.1-0.9
			h5.2c0.9,0,1.6,0.3,2.1,0.9c0.5,0.6,0.8,1.3,0.8,2.1c0,0.8-0.3,1.4-0.8,2s-1.2,0.8-2.1,0.8H228.3z"/>
		<path class="st10" d="M252,15.4c0-1.1,0.3-1.9,1-2.4c0.6-0.6,1.4-0.8,2.3-0.8c0.9,0,1.6,0.3,2.3,0.8c0.6,0.6,1,1.4,1,2.4v18.4
			c0,0.5-0.1,1-0.3,1.4c-0.2,0.4-0.4,0.8-0.7,1.1c-0.3,0.3-0.6,0.5-1,0.7c-0.4,0.2-0.8,0.2-1.2,0.2c-0.6,0-1.1-0.1-1.7-0.4
			c-0.5-0.3-1-0.7-1.4-1.3l-6.4-9.5V34c0,1.1-0.3,1.9-1,2.4c-0.6,0.6-1.4,0.8-2.3,0.8c-0.9,0-1.6-0.3-2.3-0.8c-0.6-0.6-1-1.4-1-2.4
			V15.6c0-0.5,0.1-1,0.3-1.4c0.2-0.4,0.4-0.8,0.7-1.1c0.3-0.3,0.6-0.5,1-0.7c0.4-0.2,0.8-0.2,1.2-0.2c0.6,0,1.1,0.1,1.7,0.4
			c0.5,0.3,1,0.7,1.4,1.3l6.4,9.5V15.4z"/>
		<path class="st10" d="M265.7,37.1c-2.3,0-3.4-1.1-3.4-3.4V15.8c0-2.3,1.1-3.4,3.4-3.4h11.6c1.1,0,1.9,0.3,2.5,1
			c0.6,0.7,0.9,1.5,0.9,2.4s-0.3,1.7-0.9,2.4c-0.6,0.7-1.4,1-2.5,1h-8.2v2.4h6.8c1,0,1.8,0.3,2.3,0.9c0.6,0.6,0.8,1.4,0.8,2.2
			c0,0.8-0.3,1.6-0.8,2.2c-0.6,0.6-1.3,0.9-2.3,0.9h-6.8v2.4h8.2c1.1,0,1.9,0.3,2.5,1c0.6,0.7,0.9,1.5,0.9,2.4
			c0,0.9-0.3,1.7-0.9,2.4c-0.6,0.7-1.4,1-2.5,1H265.7z"/>
		<path class="st10" d="M296.1,33.8c0,1.1-0.3,2-1,2.6c-0.7,0.6-1.5,0.9-2.4,0.9c-0.9,0-1.7-0.3-2.4-0.9c-0.7-0.6-1-1.4-1-2.6V19.2
			h-2.4c-1.1,0-1.9-0.3-2.5-1c-0.6-0.7-0.9-1.5-0.9-2.4s0.3-1.7,0.9-2.4c0.6-0.7,1.4-1,2.5-1h11.6c1.1,0,1.9,0.3,2.5,1
			c0.6,0.7,0.9,1.5,0.9,2.4s-0.3,1.7-0.9,2.4c-0.6,0.7-1.5,1-2.5,1h-2.3V33.8z"/>
		<path class="st10" d="M330.3,14.6c0.2-0.8,0.6-1.4,1.1-1.8c0.5-0.4,1.1-0.6,1.8-0.6c0.4,0,0.8,0.1,1.2,0.2
			c0.4,0.2,0.8,0.4,1.1,0.7c0.3,0.3,0.6,0.6,0.8,1.1c0.2,0.4,0.3,0.9,0.3,1.4c0,0.2,0,0.4,0,0.6s-0.1,0.4-0.1,0.6l-5.7,18.1
			c-0.3,0.8-0.7,1.4-1.4,1.8c-0.6,0.4-1.3,0.6-1.9,0.6c-0.8,0-1.4-0.2-2-0.6c-0.6-0.4-1-1-1.3-1.8l-3.3-9.1l-3.1,9.1
			c-0.3,0.8-0.7,1.4-1.4,1.8c-0.6,0.4-1.3,0.6-1.9,0.6c-0.8,0-1.4-0.2-2.1-0.6c-0.6-0.4-1.1-1-1.3-1.8L305,16.6
			c-0.1-0.2-0.1-0.4-0.2-0.6c-0.1-0.2-0.1-0.4-0.1-0.6c0-0.5,0.1-1,0.3-1.4c0.2-0.4,0.5-0.7,0.8-1c0.3-0.3,0.7-0.5,1.1-0.7
			c0.4-0.2,0.8-0.2,1.2-0.2c0.7,0,1.3,0.2,1.9,0.5c0.6,0.4,1,1,1.2,1.8l3.4,12.2l3.2-12c0.2-0.8,0.6-1.4,1.2-1.9
			c0.6-0.4,1.3-0.6,2-0.6c0.7,0,1.3,0.2,1.9,0.6c0.6,0.4,1,1,1.2,1.9l3.1,12L330.3,14.6z"/>
		<path class="st10" d="M338.5,24.7c0-1.8,0.3-3.4,1-4.9s1.6-2.9,2.7-4c1.1-1.2,2.5-2.1,4-2.7c1.5-0.7,3.2-1,4.9-1
			c1.8,0,3.4,0.3,4.9,1c1.5,0.7,2.9,1.6,4,2.7c1.1,1.2,2,2.5,2.7,4s1,3.2,1,4.9c0,1.8-0.3,3.4-1,4.9c-0.7,1.5-1.6,2.9-2.7,4
			c-1.1,1.2-2.5,2.1-4,2.7c-1.5,0.7-3.2,1-4.9,1c-1.8,0-3.4-0.3-4.9-1c-1.5-0.7-2.9-1.6-4-2.7c-1.1-1.2-2.1-2.5-2.7-4
			C338.8,28.1,338.5,26.5,338.5,24.7z M345.4,24.8c0,0.8,0.2,1.5,0.5,2.2c0.3,0.7,0.7,1.3,1.2,1.8s1.1,0.9,1.8,1.2
			c0.7,0.3,1.4,0.4,2.2,0.4c0.8,0,1.5-0.1,2.2-0.4c0.7-0.3,1.3-0.7,1.8-1.2s0.9-1.1,1.3-1.8c0.3-0.7,0.5-1.4,0.5-2.2
			c0-0.8-0.2-1.5-0.5-2.2c-0.3-0.7-0.7-1.3-1.3-1.8s-1.1-0.9-1.8-1.2c-0.7-0.3-1.4-0.5-2.2-0.5c-0.8,0-1.5,0.2-2.2,0.5
			c-0.7,0.3-1.3,0.7-1.8,1.2s-0.9,1.1-1.2,1.8C345.6,23.3,345.4,24,345.4,24.8z"/>
		<path class="st10" d="M375.3,27.7c-0.1-0.2-0.2-0.5-0.4-0.9c-0.1-0.4-0.2-0.8-0.1-1.3c0-0.9,0.2-1.6,0.7-2.1s1.1-0.8,1.9-0.8h0.5
			c0.6,0,1.1-0.2,1.4-0.5c0.4-0.3,0.5-0.8,0.5-1.5c0-0.6-0.2-1.1-0.5-1.3c-0.4-0.3-0.9-0.4-1.6-0.4H374v14.7c0,2.3-1.1,3.5-3.4,3.5
			c-2.3,0-3.4-1.2-3.4-3.5V15.8c0-2.3,1.1-3.5,3.3-3.5h7.4c1.5,0,2.7,0.2,3.8,0.7c1.1,0.4,1.9,1,2.6,1.7c0.7,0.7,1.2,1.5,1.5,2.4
			c0.3,0.9,0.5,1.8,0.5,2.8c0,1.7-0.4,3.1-1.2,4.3c-0.8,1.2-1.8,2-2.9,2.5l3.3,5.1c0.4,0.8,0.7,1.5,0.7,2.1c0,0.5-0.1,1-0.3,1.4
			c-0.2,0.4-0.5,0.8-0.8,1.1c-0.4,0.3-0.8,0.5-1.2,0.7c-0.4,0.2-0.9,0.2-1.3,0.2c-0.5,0-1.1-0.1-1.6-0.4s-1-0.7-1.3-1.3L375.3,27.7z
			"/>
		<path class="st10" d="M396.3,33.8c0,1.1-0.3,2-1,2.6c-0.7,0.6-1.5,0.9-2.4,0.9c-0.9,0-1.7-0.3-2.4-0.9c-0.7-0.6-1-1.4-1-2.6V15.6
			c0-1.1,0.3-1.9,1-2.5c0.7-0.6,1.5-0.9,2.4-0.9c0.9,0,1.7,0.3,2.4,0.9c0.7,0.6,1,1.4,1,2.5v5.8l5.6-7.9c0.3-0.5,0.7-0.8,1.1-1
			c0.4-0.2,0.9-0.3,1.5-0.3c1.1,0,2,0.3,2.6,1c0.6,0.6,0.9,1.5,0.9,2.4c0,0.4-0.1,0.8-0.2,1.2s-0.3,0.7-0.6,1l-5.7,6.5l5.8,7.4
			c0.5,0.7,0.8,1.4,0.8,2.1c0,1.1-0.3,1.9-1,2.5c-0.7,0.6-1.5,0.9-2.6,0.9c-0.5,0-1-0.1-1.5-0.3c-0.5-0.2-0.9-0.6-1.2-1l-5.7-7.9
			V33.8z"/>
		<path class="st10" d="M110.5,75.9c0,1.1-0.3,2-1,2.6c-0.7,0.6-1.5,0.9-2.4,0.9c-0.9,0-1.7-0.3-2.4-0.9c-0.7-0.6-1-1.4-1-2.5V58.1
			c0-2.3,1.1-3.4,3.4-3.4h11.6c1.1,0,1.9,0.3,2.5,1c0.6,0.7,0.9,1.5,0.9,2.4s-0.3,1.7-0.9,2.4c-0.6,0.7-1.4,1-2.5,1h-8.2v2.4h6.7
			c1.1,0,1.9,0.3,2.4,1s0.8,1.4,0.8,2.3c0,0.9-0.3,1.7-0.8,2.3c-0.6,0.6-1.4,1-2.4,1h-6.7V75.9z"/>
		<path class="st10" d="M133,70c-0.1-0.2-0.2-0.5-0.4-0.9c-0.1-0.4-0.2-0.8-0.1-1.3c0-0.9,0.2-1.6,0.7-2.1c0.5-0.5,1.1-0.8,1.9-0.8
			h0.5c0.6,0,1.1-0.2,1.4-0.5c0.4-0.3,0.5-0.8,0.5-1.5c0-0.6-0.2-1.1-0.5-1.3c-0.4-0.3-0.9-0.4-1.6-0.4h-3.7v14.7
			c0,2.3-1.1,3.5-3.4,3.5c-2.3,0-3.4-1.2-3.4-3.5V58c0-2.3,1.1-3.5,3.3-3.5h7.4c1.5,0,2.7,0.2,3.8,0.7s1.9,1,2.6,1.7
			c0.7,0.7,1.2,1.5,1.5,2.4c0.3,0.9,0.5,1.8,0.5,2.8c0,1.7-0.4,3.1-1.2,4.3s-1.8,2-2.9,2.5l3.3,5.1c0.4,0.8,0.7,1.5,0.7,2.1
			c0,0.5-0.1,1-0.3,1.4c-0.2,0.4-0.5,0.8-0.8,1.1c-0.4,0.3-0.8,0.5-1.2,0.7c-0.4,0.2-0.9,0.2-1.3,0.2c-0.5,0-1.1-0.1-1.6-0.4
			c-0.5-0.3-1-0.7-1.3-1.3L133,70z"/>
		<path class="st10" d="M146.8,67c0-1.8,0.3-3.4,1-4.9c0.7-1.5,1.6-2.9,2.7-4c1.1-1.2,2.5-2.1,4-2.7s3.2-1,4.9-1
			c1.8,0,3.4,0.3,4.9,1c1.5,0.7,2.9,1.6,4,2.7s2,2.5,2.7,4c0.7,1.5,1,3.2,1,4.9c0,1.8-0.3,3.4-1,4.9c-0.7,1.5-1.6,2.9-2.7,4
			s-2.5,2.1-4,2.7c-1.5,0.7-3.2,1-4.9,1c-1.8,0-3.4-0.3-4.9-1s-2.9-1.6-4-2.7c-1.1-1.2-2.1-2.5-2.7-4S146.8,68.7,146.8,67z
			 M153.7,67.1c0,0.8,0.2,1.5,0.5,2.2c0.3,0.7,0.7,1.3,1.2,1.8c0.5,0.5,1.1,0.9,1.8,1.2c0.7,0.3,1.4,0.4,2.2,0.4s1.5-0.1,2.2-0.4
			c0.7-0.3,1.3-0.7,1.8-1.2c0.5-0.5,0.9-1.1,1.2-1.8c0.3-0.7,0.5-1.4,0.5-2.2s-0.2-1.5-0.5-2.2s-0.7-1.3-1.2-1.8
			c-0.5-0.5-1.1-0.9-1.8-1.2c-0.7-0.3-1.4-0.5-2.2-0.5s-1.5,0.2-2.2,0.5c-0.7,0.3-1.3,0.7-1.8,1.2c-0.5,0.5-0.9,1.1-1.2,1.8
			C153.9,65.5,153.7,66.3,153.7,67.1z"/>
		<path class="st10" d="M187.3,70.3c-0.9,0-1.8-0.5-2.5-1.4l-2.5-3.3v10.6c0,1.1-0.3,1.9-1,2.5s-1.5,0.9-2.4,0.9
			c-0.9,0-1.8-0.3-2.4-0.9s-1-1.4-1-2.6v-18c0-0.6,0.1-1.1,0.3-1.5c0.2-0.5,0.5-0.8,0.8-1.1c0.3-0.3,0.7-0.5,1.1-0.7
			c0.4-0.2,0.9-0.2,1.4-0.2c0.6,0,1.2,0.1,1.8,0.4c0.6,0.3,1.1,0.7,1.6,1.3l4.9,6.2l4.9-6.2c0.4-0.6,1-1,1.6-1.3
			c0.6-0.3,1.2-0.4,1.8-0.4c0.5,0,0.9,0.1,1.4,0.2s0.8,0.4,1.2,0.7c0.3,0.3,0.6,0.7,0.8,1.1c0.2,0.5,0.3,1,0.3,1.5v18
			c0,1.1-0.3,2-1,2.6s-1.5,0.9-2.4,0.9c-0.9,0-1.7-0.3-2.4-0.9s-1-1.4-1-2.6V65.5l-2.5,3.3c-0.4,0.5-0.8,0.9-1.2,1.1
			C188.2,70.1,187.7,70.3,187.3,70.3z"/>
		<path class="st10" d="M205.1,69.9c-0.9,0-1.6-0.3-2.1-0.8s-0.8-1.2-0.8-2c0-0.8,0.3-1.5,0.8-2.1s1.2-0.9,2.1-0.9h5.2
			c0.9,0,1.6,0.3,2.1,0.9c0.5,0.6,0.8,1.3,0.8,2.1c0,0.8-0.3,1.4-0.8,2c-0.5,0.6-1.2,0.8-2.1,0.8H205.1z"/>
		<path class="st10" d="M228,70.3c-0.9,0-1.8-0.5-2.5-1.4l-2.5-3.3v10.6c0,1.1-0.3,1.9-1,2.5c-0.7,0.6-1.5,0.9-2.4,0.9
			c-0.9,0-1.7-0.3-2.4-0.9c-0.7-0.6-1-1.4-1-2.6v-18c0-0.6,0.1-1.1,0.3-1.5s0.5-0.8,0.8-1.1c0.3-0.3,0.7-0.5,1.1-0.7
			s0.9-0.2,1.4-0.2c0.6,0,1.2,0.1,1.8,0.4c0.6,0.3,1.1,0.7,1.6,1.3l4.9,6.2l4.9-6.2c0.4-0.6,1-1,1.6-1.3c0.6-0.3,1.2-0.4,1.8-0.4
			c0.5,0,0.9,0.1,1.4,0.2s0.8,0.4,1.2,0.7c0.3,0.3,0.6,0.7,0.8,1.1c0.2,0.5,0.3,1,0.3,1.5v18c0,1.1-0.3,2-1,2.6
			c-0.7,0.6-1.5,0.9-2.4,0.9c-0.9,0-1.7-0.3-2.4-0.9c-0.7-0.6-1-1.4-1-2.6V65.5l-2.5,3.3c-0.4,0.5-0.8,0.9-1.2,1.1
			C228.9,70.1,228.5,70.3,228,70.3z"/>
		<path class="st10" d="M250.5,76.1c0,1.1-0.3,2-1,2.6c-0.7,0.6-1.5,0.9-2.4,0.9c-0.9,0-1.7-0.3-2.4-0.9c-0.7-0.6-1-1.4-1-2.6V57.9
			c0-1.1,0.3-1.9,1-2.5c0.7-0.6,1.5-0.9,2.4-0.9c0.9,0,1.7,0.3,2.4,0.9c0.7,0.6,1,1.4,1,2.5V76.1z"/>
		<path class="st10" d="M266.9,57.7c0-1.1,0.3-1.9,1-2.4s1.4-0.8,2.3-0.8c0.9,0,1.6,0.3,2.3,0.8c0.6,0.6,1,1.4,1,2.4v18.4
			c0,0.5-0.1,1-0.3,1.4c-0.2,0.4-0.4,0.8-0.7,1.1c-0.3,0.3-0.6,0.5-1,0.7s-0.8,0.2-1.2,0.2c-0.6,0-1.1-0.1-1.7-0.4
			c-0.5-0.3-1-0.7-1.4-1.3l-6.4-9.5v8.1c0,1.1-0.3,1.9-1,2.4c-0.6,0.6-1.4,0.8-2.3,0.8c-0.9,0-1.6-0.3-2.3-0.8c-0.6-0.6-1-1.4-1-2.4
			V57.9c0-0.5,0.1-1,0.3-1.4s0.4-0.8,0.7-1.1c0.3-0.3,0.6-0.5,1-0.7c0.4-0.2,0.8-0.2,1.2-0.2c0.6,0,1.1,0.1,1.7,0.4
			c0.5,0.3,1,0.7,1.4,1.3l6.4,9.5V57.7z"/>
		<path class="st10" d="M277.2,58c0-0.4,0.1-0.9,0.3-1.3c0.2-0.4,0.5-0.8,0.8-1.1c0.3-0.3,0.7-0.6,1.1-0.8c0.4-0.2,0.8-0.3,1.3-0.3
			h3.3c2.1,0,4,0.4,5.6,1.1c1.6,0.7,2.9,1.7,4,2.9c1.1,1.2,1.9,2.5,2.4,4c0.5,1.5,0.8,3,0.8,4.6s-0.3,3.1-0.8,4.5
			c-0.5,1.5-1.3,2.8-2.3,3.9s-2.3,2.1-3.8,2.8c-1.5,0.7-3.3,1-5.4,1h-3.9c-1.1,0-1.9-0.3-2.6-0.9c-0.6-0.6-1-1.5-1-2.5V58z
			 M284.6,72.5c0.9,0,1.7-0.2,2.4-0.5c0.7-0.3,1.3-0.8,1.7-1.3c0.5-0.5,0.8-1.1,1-1.8c0.2-0.7,0.4-1.4,0.4-2.1
			c0-0.7-0.1-1.3-0.3-1.9c-0.2-0.6-0.6-1.2-1-1.7c-0.4-0.5-1-0.9-1.7-1.2c-0.7-0.3-1.5-0.5-2.5-0.5H284v11H284.6z"/>
		<path class="st10" d="M306.9,76.1c0,1.1-0.3,2-1,2.6c-0.7,0.6-1.5,0.9-2.4,0.9c-0.9,0-1.7-0.3-2.4-0.9c-0.7-0.6-1-1.4-1-2.6V57.9
			c0-1.1,0.3-1.9,1-2.5c0.7-0.6,1.5-0.9,2.4-0.9c0.9,0,1.7,0.3,2.4,0.9c0.7,0.6,1,1.4,1,2.5v5.8l5.6-7.9c0.3-0.5,0.7-0.8,1.1-1
			s0.9-0.3,1.5-0.3c1.1,0,2,0.3,2.6,1c0.6,0.6,0.9,1.5,0.9,2.4c0,0.4-0.1,0.8-0.2,1.2s-0.3,0.7-0.6,1l-5.7,6.5l5.8,7.4
			c0.5,0.7,0.8,1.4,0.8,2.1c0,1.1-0.3,1.9-1,2.5s-1.5,0.9-2.6,0.9c-0.5,0-1-0.1-1.5-0.3c-0.5-0.2-0.9-0.6-1.2-1l-5.7-7.9V76.1z"/>
		<path class="st10" d="M321.6,69.9c-0.9,0-1.6-0.3-2.1-0.8c-0.5-0.6-0.8-1.2-0.8-2c0-0.8,0.3-1.5,0.8-2.1c0.5-0.6,1.2-0.9,2.1-0.9
			h5.2c0.9,0,1.6,0.3,2.1,0.9s0.8,1.3,0.8,2.1c0,0.8-0.3,1.4-0.8,2s-1.2,0.8-2.1,0.8H321.6z"/>
		<path class="st10" d="M333.5,79.4c-0.6,0-0.9-0.3-0.9-1v-6.9c0-2.6,0.5-4.4,1.6-5.6c1.1-1.2,2.9-1.7,5.3-1.7h5.5
			c1.2,0,1.8-0.4,1.8-1.3c0-0.9-0.6-1.4-1.8-1.4h-8.5c-2.2,0-3.3-1.1-3.3-3.4v-0.1c0-2.2,1.1-3.3,3.3-3.3h8.5c5.2,0,7.8,2.6,7.8,7.9
			c0,1.3-0.1,2.4-0.3,3.3c-0.2,0.9-0.6,1.7-1.1,2.3c-0.5,0.6-1.2,1.1-2.1,1.4c-0.9,0.3-2,0.4-3.3,0.4h-5.8c-1.1,0-1.6,0.4-1.6,1.3
			l0.1,1.2h10.6c1.3,0,2.2,0.3,2.8,0.8s0.8,1.4,0.8,2.6c0,2.3-1.2,3.5-3.6,3.5H333.5z"/>
		<path class="st10" d="M377,70.2c0,1.7-0.2,3.2-0.6,4.3c-0.4,1.2-0.9,2.1-1.7,2.8c-0.7,0.7-1.6,1.2-2.6,1.5s-2.1,0.5-3.4,0.5h-4.1
			c-1.2,0-2.4-0.2-3.4-0.5s-1.9-0.8-2.6-1.5c-0.7-0.7-1.3-1.7-1.7-2.8c-0.4-1.2-0.6-2.6-0.6-4.3v-6.4c0-1.7,0.2-3.2,0.6-4.3
			c0.4-1.2,0.9-2.1,1.7-2.8c0.7-0.7,1.6-1.2,2.6-1.5s2.1-0.5,3.4-0.5h4.1c1.2,0,2.4,0.2,3.4,0.5s1.9,0.8,2.6,1.5
			c0.7,0.7,1.3,1.7,1.7,2.8c0.4,1.2,0.6,2.6,0.6,4.3V70.2z M368.7,72.5c0.6,0,1-0.2,1.3-0.5c0.3-0.3,0.4-1,0.4-2V64
			c0-1-0.1-1.6-0.4-2c-0.3-0.3-0.7-0.5-1.3-0.5H365c-0.6,0-1,0.2-1.3,0.5s-0.4,1-0.4,2V70c0,1,0.1,1.6,0.4,2
			c0.3,0.3,0.7,0.5,1.3,0.5H368.7z"/>
		<path class="st10" d="M381.7,79.4c-0.6,0-0.9-0.3-0.9-1v-6.9c0-2.6,0.5-4.4,1.6-5.6c1.1-1.2,2.9-1.7,5.3-1.7h5.5
			c1.2,0,1.8-0.4,1.8-1.3c0-0.9-0.6-1.4-1.8-1.4h-8.5c-2.2,0-3.3-1.1-3.3-3.4v-0.1c0-2.2,1.1-3.3,3.3-3.3h8.5c5.2,0,7.8,2.6,7.8,7.9
			c0,1.3-0.1,2.4-0.3,3.3c-0.2,0.9-0.6,1.7-1.1,2.3c-0.5,0.6-1.2,1.1-2.1,1.4c-0.9,0.3-2,0.4-3.3,0.4h-5.8c-1.1,0-1.6,0.4-1.6,1.3
			l0.1,1.2h10.6c1.3,0,2.2,0.3,2.8,0.8s0.8,1.4,0.8,2.6c0,2.3-1.2,3.5-3.6,3.5H381.7z"/>
		<path class="st10" d="M425.2,70.2c0,1.7-0.2,3.2-0.6,4.3c-0.4,1.2-0.9,2.1-1.7,2.8c-0.7,0.7-1.6,1.2-2.6,1.5s-2.1,0.5-3.4,0.5H413
			c-1.2,0-2.4-0.2-3.4-0.5s-1.9-0.8-2.6-1.5c-0.7-0.7-1.3-1.7-1.7-2.8c-0.4-1.2-0.6-2.6-0.6-4.3v-6.4c0-1.7,0.2-3.2,0.6-4.3
			c0.4-1.2,0.9-2.1,1.7-2.8c0.7-0.7,1.6-1.2,2.6-1.5s2.1-0.5,3.4-0.5h4.1c1.2,0,2.4,0.2,3.4,0.5s1.9,0.8,2.6,1.5
			c0.7,0.7,1.3,1.7,1.7,2.8c0.4,1.2,0.6,2.6,0.6,4.3V70.2z M416.8,72.5c0.6,0,1-0.2,1.3-0.5c0.3-0.3,0.4-1,0.4-2V64
			c0-1-0.1-1.6-0.4-2c-0.3-0.3-0.7-0.5-1.3-0.5h-3.7c-0.6,0-1,0.2-1.3,0.5s-0.4,1-0.4,2V70c0,1,0.1,1.6,0.4,2
			c0.3,0.3,0.7,0.5,1.3,0.5H416.8z"/>
	</g>
</g>
</svg>
